<?xml version="1.0" encoding="utf-8" standalone="no"?>
<!DOCTYPE svg PUBLIC "-//W3C//DTD SVG 1.1//EN"
  "http://www.w3.org/Graphics/SVG/1.1/DTD/svg11.dtd">
<svg xmlns:xlink="http://www.w3.org/1999/xlink" width="564.375937pt" height="340.908937pt" viewBox="0 0 564.375937 340.908937" xmlns="http://www.w3.org/2000/svg" version="1.1">
 <metadata>
  <rdf:RDF xmlns:dc="http://purl.org/dc/elements/1.1/" xmlns:cc="http://creativecommons.org/ns#" xmlns:rdf="http://www.w3.org/1999/02/22-rdf-syntax-ns#">
   <cc:Work>
    <dc:type rdf:resource="http://purl.org/dc/dcmitype/StillImage"/>
    <dc:date>2024-03-19T21:57:15.727058</dc:date>
    <dc:format>image/svg+xml</dc:format>
    <dc:creator>
     <cc:Agent>
      <dc:title>Matplotlib v3.8.0, https://matplotlib.org/</dc:title>
     </cc:Agent>
    </dc:creator>
   </cc:Work>
  </rdf:RDF>
 </metadata>
 <defs>
  <style type="text/css">*{stroke-linejoin: round; stroke-linecap: butt}</style>
 </defs>
 <g id="figure_1">
  <g id="patch_1">
   <path d="M 0 340.908937
L 564.375937 340.908937
L 564.375937 0
L 0 0
z
" style="fill: #ffffff"/>
  </g>
  <g id="axes_1">
   <g id="patch_2">
    <path d="M 115.718906 295.417687
L 418.508906 295.417687
L 418.508906 22.37625
L 115.718906 22.37625
z
" style="fill: #eaeaf2"/>
   </g>
   <g id="matplotlib.axis_1">
    <g id="xtick_1">
     <g id="line2d_1">
      <path d="M 201.586035 295.417687
L 201.586035 22.37625
" clip-path="url(#pa73a714d9b)" style="fill: none; stroke: #ffffff; stroke-linecap: round"/>
     </g>
     <g id="text_1">
      <!-- $\mathdefault{10^{3}}$ -->
      <g style="fill: #262626" transform="translate(192.951035 316.261437) scale(0.11 -0.11)">
       <defs>
        <path id="ArialMT-31" d="M 2384 0
L 1822 0
L 1822 3584
Q 1619 3391 1289 3197
Q 959 3003 697 2906
L 697 3450
Q 1169 3672 1522 3987
Q 1875 4303 2022 4600
L 2384 4600
L 2384 0
z
" transform="scale(0.015625)"/>
        <path id="ArialMT-30" d="M 266 2259
Q 266 3072 433 3567
Q 600 4063 929 4331
Q 1259 4600 1759 4600
Q 2128 4600 2406 4451
Q 2684 4303 2865 4023
Q 3047 3744 3150 3342
Q 3253 2941 3253 2259
Q 3253 1453 3087 958
Q 2922 463 2592 192
Q 2263 -78 1759 -78
Q 1097 -78 719 397
Q 266 969 266 2259
z
M 844 2259
Q 844 1131 1108 757
Q 1372 384 1759 384
Q 2147 384 2411 759
Q 2675 1134 2675 2259
Q 2675 3391 2411 3762
Q 2147 4134 1753 4134
Q 1366 4134 1134 3806
Q 844 3388 844 2259
z
" transform="scale(0.015625)"/>
        <path id="ArialMT-33" d="M 269 1209
L 831 1284
Q 928 806 1161 595
Q 1394 384 1728 384
Q 2125 384 2398 659
Q 2672 934 2672 1341
Q 2672 1728 2419 1979
Q 2166 2231 1775 2231
Q 1616 2231 1378 2169
L 1441 2663
Q 1497 2656 1531 2656
Q 1891 2656 2178 2843
Q 2466 3031 2466 3422
Q 2466 3731 2256 3934
Q 2047 4138 1716 4138
Q 1388 4138 1169 3931
Q 950 3725 888 3313
L 325 3413
Q 428 3978 793 4289
Q 1159 4600 1703 4600
Q 2078 4600 2393 4439
Q 2709 4278 2876 4000
Q 3044 3722 3044 3409
Q 3044 3113 2884 2869
Q 2725 2625 2413 2481
Q 2819 2388 3044 2092
Q 3269 1797 3269 1353
Q 3269 753 2831 336
Q 2394 -81 1725 -81
Q 1122 -81 723 278
Q 325 638 269 1209
z
" transform="scale(0.015625)"/>
       </defs>
       <use xlink:href="#ArialMT-31" transform="translate(0 0.99375)"/>
       <use xlink:href="#ArialMT-30" transform="translate(55.615234 0.99375)"/>
       <use xlink:href="#ArialMT-33" transform="translate(112.972813 70.6875) scale(0.7)"/>
      </g>
     </g>
    </g>
    <g id="xtick_2">
     <g id="line2d_2">
      <path d="M 291.09578 295.417687
L 291.09578 22.37625
" clip-path="url(#pa73a714d9b)" style="fill: none; stroke: #ffffff; stroke-linecap: round"/>
     </g>
     <g id="text_2">
      <!-- $\mathdefault{10^{4}}$ -->
      <g style="fill: #262626" transform="translate(282.46078 316.151437) scale(0.11 -0.11)">
       <defs>
        <path id="ArialMT-34" d="M 2069 0
L 2069 1097
L 81 1097
L 81 1613
L 2172 4581
L 2631 4581
L 2631 1613
L 3250 1613
L 3250 1097
L 2631 1097
L 2631 0
L 2069 0
z
M 2069 1613
L 2069 3678
L 634 1613
L 2069 1613
z
" transform="scale(0.015625)"/>
       </defs>
       <use xlink:href="#ArialMT-31" transform="translate(0 0.201563)"/>
       <use xlink:href="#ArialMT-30" transform="translate(55.615234 0.201563)"/>
       <use xlink:href="#ArialMT-34" transform="translate(112.972813 69.895313) scale(0.7)"/>
      </g>
     </g>
    </g>
    <g id="xtick_3">
     <g id="line2d_3">
      <path d="M 380.605525 295.417687
L 380.605525 22.37625
" clip-path="url(#pa73a714d9b)" style="fill: none; stroke: #ffffff; stroke-linecap: round"/>
     </g>
     <g id="text_3">
      <!-- $\mathdefault{10^{5}}$ -->
      <g style="fill: #262626" transform="translate(371.970525 316.151437) scale(0.11 -0.11)">
       <defs>
        <path id="ArialMT-35" d="M 266 1200
L 856 1250
Q 922 819 1161 601
Q 1400 384 1738 384
Q 2144 384 2425 690
Q 2706 997 2706 1503
Q 2706 1984 2436 2262
Q 2166 2541 1728 2541
Q 1456 2541 1237 2417
Q 1019 2294 894 2097
L 366 2166
L 809 4519
L 3088 4519
L 3088 3981
L 1259 3981
L 1013 2750
Q 1425 3038 1878 3038
Q 2478 3038 2890 2622
Q 3303 2206 3303 1553
Q 3303 931 2941 478
Q 2500 -78 1738 -78
Q 1113 -78 717 272
Q 322 622 266 1200
z
" transform="scale(0.015625)"/>
       </defs>
       <use xlink:href="#ArialMT-31" transform="translate(0 0.879688)"/>
       <use xlink:href="#ArialMT-30" transform="translate(55.615234 0.879688)"/>
       <use xlink:href="#ArialMT-35" transform="translate(112.972813 70.573438) scale(0.7)"/>
      </g>
     </g>
    </g>
    <g id="xtick_4"/>
    <g id="xtick_5"/>
    <g id="xtick_6"/>
    <g id="xtick_7"/>
    <g id="xtick_8"/>
    <g id="xtick_9"/>
    <g id="xtick_10"/>
    <g id="xtick_11"/>
    <g id="xtick_12"/>
    <g id="xtick_13"/>
    <g id="xtick_14"/>
    <g id="xtick_15"/>
    <g id="xtick_16"/>
    <g id="xtick_17"/>
    <g id="xtick_18"/>
    <g id="xtick_19"/>
    <g id="xtick_20"/>
    <g id="xtick_21"/>
    <g id="xtick_22"/>
    <g id="xtick_23"/>
    <g id="xtick_24"/>
    <g id="xtick_25"/>
    <g id="xtick_26"/>
    <g id="xtick_27"/>
    <g id="xtick_28"/>
    <g id="text_4">
     <!-- samples per second (avg per epoch) -->
     <g style="fill: #262626" transform="translate(169.735781 331.183312) scale(0.12 -0.12)">
      <defs>
       <path id="ArialMT-73" d="M 197 991
L 753 1078
Q 800 744 1014 566
Q 1228 388 1613 388
Q 2000 388 2187 545
Q 2375 703 2375 916
Q 2375 1106 2209 1216
Q 2094 1291 1634 1406
Q 1016 1563 777 1677
Q 538 1791 414 1992
Q 291 2194 291 2438
Q 291 2659 392 2848
Q 494 3038 669 3163
Q 800 3259 1026 3326
Q 1253 3394 1513 3394
Q 1903 3394 2198 3281
Q 2494 3169 2634 2976
Q 2775 2784 2828 2463
L 2278 2388
Q 2241 2644 2061 2787
Q 1881 2931 1553 2931
Q 1166 2931 1000 2803
Q 834 2675 834 2503
Q 834 2394 903 2306
Q 972 2216 1119 2156
Q 1203 2125 1616 2013
Q 2213 1853 2448 1751
Q 2684 1650 2818 1456
Q 2953 1263 2953 975
Q 2953 694 2789 445
Q 2625 197 2315 61
Q 2006 -75 1616 -75
Q 969 -75 630 194
Q 291 463 197 991
z
" transform="scale(0.015625)"/>
       <path id="ArialMT-61" d="M 2588 409
Q 2275 144 1986 34
Q 1697 -75 1366 -75
Q 819 -75 525 192
Q 231 459 231 875
Q 231 1119 342 1320
Q 453 1522 633 1644
Q 813 1766 1038 1828
Q 1203 1872 1538 1913
Q 2219 1994 2541 2106
Q 2544 2222 2544 2253
Q 2544 2597 2384 2738
Q 2169 2928 1744 2928
Q 1347 2928 1158 2789
Q 969 2650 878 2297
L 328 2372
Q 403 2725 575 2942
Q 747 3159 1072 3276
Q 1397 3394 1825 3394
Q 2250 3394 2515 3294
Q 2781 3194 2906 3042
Q 3031 2891 3081 2659
Q 3109 2516 3109 2141
L 3109 1391
Q 3109 606 3145 398
Q 3181 191 3288 0
L 2700 0
Q 2613 175 2588 409
z
M 2541 1666
Q 2234 1541 1622 1453
Q 1275 1403 1131 1340
Q 988 1278 909 1158
Q 831 1038 831 891
Q 831 666 1001 516
Q 1172 366 1500 366
Q 1825 366 2078 508
Q 2331 650 2450 897
Q 2541 1088 2541 1459
L 2541 1666
z
" transform="scale(0.015625)"/>
       <path id="ArialMT-6d" d="M 422 0
L 422 3319
L 925 3319
L 925 2853
Q 1081 3097 1340 3245
Q 1600 3394 1931 3394
Q 2300 3394 2536 3241
Q 2772 3088 2869 2813
Q 3263 3394 3894 3394
Q 4388 3394 4653 3120
Q 4919 2847 4919 2278
L 4919 0
L 4359 0
L 4359 2091
Q 4359 2428 4304 2576
Q 4250 2725 4106 2815
Q 3963 2906 3769 2906
Q 3419 2906 3187 2673
Q 2956 2441 2956 1928
L 2956 0
L 2394 0
L 2394 2156
Q 2394 2531 2256 2718
Q 2119 2906 1806 2906
Q 1569 2906 1367 2781
Q 1166 2656 1075 2415
Q 984 2175 984 1722
L 984 0
L 422 0
z
" transform="scale(0.015625)"/>
       <path id="ArialMT-70" d="M 422 -1272
L 422 3319
L 934 3319
L 934 2888
Q 1116 3141 1344 3267
Q 1572 3394 1897 3394
Q 2322 3394 2647 3175
Q 2972 2956 3137 2557
Q 3303 2159 3303 1684
Q 3303 1175 3120 767
Q 2938 359 2589 142
Q 2241 -75 1856 -75
Q 1575 -75 1351 44
Q 1128 163 984 344
L 984 -1272
L 422 -1272
z
M 931 1641
Q 931 1000 1190 694
Q 1450 388 1819 388
Q 2194 388 2461 705
Q 2728 1022 2728 1688
Q 2728 2322 2467 2637
Q 2206 2953 1844 2953
Q 1484 2953 1207 2617
Q 931 2281 931 1641
z
" transform="scale(0.015625)"/>
       <path id="ArialMT-6c" d="M 409 0
L 409 4581
L 972 4581
L 972 0
L 409 0
z
" transform="scale(0.015625)"/>
       <path id="ArialMT-65" d="M 2694 1069
L 3275 997
Q 3138 488 2766 206
Q 2394 -75 1816 -75
Q 1088 -75 661 373
Q 234 822 234 1631
Q 234 2469 665 2931
Q 1097 3394 1784 3394
Q 2450 3394 2872 2941
Q 3294 2488 3294 1666
Q 3294 1616 3291 1516
L 816 1516
Q 847 969 1125 678
Q 1403 388 1819 388
Q 2128 388 2347 550
Q 2566 713 2694 1069
z
M 847 1978
L 2700 1978
Q 2663 2397 2488 2606
Q 2219 2931 1791 2931
Q 1403 2931 1139 2672
Q 875 2413 847 1978
z
" transform="scale(0.015625)"/>
       <path id="ArialMT-20" transform="scale(0.015625)"/>
       <path id="ArialMT-72" d="M 416 0
L 416 3319
L 922 3319
L 922 2816
Q 1116 3169 1280 3281
Q 1444 3394 1641 3394
Q 1925 3394 2219 3213
L 2025 2691
Q 1819 2813 1613 2813
Q 1428 2813 1281 2702
Q 1134 2591 1072 2394
Q 978 2094 978 1738
L 978 0
L 416 0
z
" transform="scale(0.015625)"/>
       <path id="ArialMT-63" d="M 2588 1216
L 3141 1144
Q 3050 572 2676 248
Q 2303 -75 1759 -75
Q 1078 -75 664 370
Q 250 816 250 1647
Q 250 2184 428 2587
Q 606 2991 970 3192
Q 1334 3394 1763 3394
Q 2303 3394 2647 3120
Q 2991 2847 3088 2344
L 2541 2259
Q 2463 2594 2264 2762
Q 2066 2931 1784 2931
Q 1359 2931 1093 2626
Q 828 2322 828 1663
Q 828 994 1084 691
Q 1341 388 1753 388
Q 2084 388 2306 591
Q 2528 794 2588 1216
z
" transform="scale(0.015625)"/>
       <path id="ArialMT-6f" d="M 213 1659
Q 213 2581 725 3025
Q 1153 3394 1769 3394
Q 2453 3394 2887 2945
Q 3322 2497 3322 1706
Q 3322 1066 3130 698
Q 2938 331 2570 128
Q 2203 -75 1769 -75
Q 1072 -75 642 372
Q 213 819 213 1659
z
M 791 1659
Q 791 1022 1069 705
Q 1347 388 1769 388
Q 2188 388 2466 706
Q 2744 1025 2744 1678
Q 2744 2294 2464 2611
Q 2184 2928 1769 2928
Q 1347 2928 1069 2612
Q 791 2297 791 1659
z
" transform="scale(0.015625)"/>
       <path id="ArialMT-6e" d="M 422 0
L 422 3319
L 928 3319
L 928 2847
Q 1294 3394 1984 3394
Q 2284 3394 2536 3286
Q 2788 3178 2913 3003
Q 3038 2828 3088 2588
Q 3119 2431 3119 2041
L 3119 0
L 2556 0
L 2556 2019
Q 2556 2363 2490 2533
Q 2425 2703 2258 2804
Q 2091 2906 1866 2906
Q 1506 2906 1245 2678
Q 984 2450 984 1813
L 984 0
L 422 0
z
" transform="scale(0.015625)"/>
       <path id="ArialMT-64" d="M 2575 0
L 2575 419
Q 2259 -75 1647 -75
Q 1250 -75 917 144
Q 584 363 401 755
Q 219 1147 219 1656
Q 219 2153 384 2558
Q 550 2963 881 3178
Q 1213 3394 1622 3394
Q 1922 3394 2156 3267
Q 2391 3141 2538 2938
L 2538 4581
L 3097 4581
L 3097 0
L 2575 0
z
M 797 1656
Q 797 1019 1065 703
Q 1334 388 1700 388
Q 2069 388 2326 689
Q 2584 991 2584 1609
Q 2584 2291 2321 2609
Q 2059 2928 1675 2928
Q 1300 2928 1048 2622
Q 797 2316 797 1656
z
" transform="scale(0.015625)"/>
       <path id="ArialMT-28" d="M 1497 -1347
Q 1031 -759 709 28
Q 388 816 388 1659
Q 388 2403 628 3084
Q 909 3875 1497 4659
L 1900 4659
Q 1522 4009 1400 3731
Q 1209 3300 1100 2831
Q 966 2247 966 1656
Q 966 153 1900 -1347
L 1497 -1347
z
" transform="scale(0.015625)"/>
       <path id="ArialMT-76" d="M 1344 0
L 81 3319
L 675 3319
L 1388 1331
Q 1503 1009 1600 663
Q 1675 925 1809 1294
L 2547 3319
L 3125 3319
L 1869 0
L 1344 0
z
" transform="scale(0.015625)"/>
       <path id="ArialMT-67" d="M 319 -275
L 866 -356
Q 900 -609 1056 -725
Q 1266 -881 1628 -881
Q 2019 -881 2231 -725
Q 2444 -569 2519 -288
Q 2563 -116 2559 434
Q 2191 0 1641 0
Q 956 0 581 494
Q 206 988 206 1678
Q 206 2153 378 2554
Q 550 2956 876 3175
Q 1203 3394 1644 3394
Q 2231 3394 2613 2919
L 2613 3319
L 3131 3319
L 3131 450
Q 3131 -325 2973 -648
Q 2816 -972 2473 -1159
Q 2131 -1347 1631 -1347
Q 1038 -1347 672 -1080
Q 306 -813 319 -275
z
M 784 1719
Q 784 1066 1043 766
Q 1303 466 1694 466
Q 2081 466 2343 764
Q 2606 1063 2606 1700
Q 2606 2309 2336 2618
Q 2066 2928 1684 2928
Q 1309 2928 1046 2623
Q 784 2319 784 1719
z
" transform="scale(0.015625)"/>
       <path id="ArialMT-68" d="M 422 0
L 422 4581
L 984 4581
L 984 2938
Q 1378 3394 1978 3394
Q 2347 3394 2619 3248
Q 2891 3103 3008 2847
Q 3125 2591 3125 2103
L 3125 0
L 2563 0
L 2563 2103
Q 2563 2525 2380 2717
Q 2197 2909 1863 2909
Q 1613 2909 1392 2779
Q 1172 2650 1078 2428
Q 984 2206 984 1816
L 984 0
L 422 0
z
" transform="scale(0.015625)"/>
       <path id="ArialMT-29" d="M 791 -1347
L 388 -1347
Q 1322 153 1322 1656
Q 1322 2244 1188 2822
Q 1081 3291 891 3722
Q 769 4003 388 4659
L 791 4659
Q 1378 3875 1659 3084
Q 1900 2403 1900 1659
Q 1900 816 1576 28
Q 1253 -759 791 -1347
z
" transform="scale(0.015625)"/>
      </defs>
      <use xlink:href="#ArialMT-73"/>
      <use xlink:href="#ArialMT-61" x="50"/>
      <use xlink:href="#ArialMT-6d" x="105.615234"/>
      <use xlink:href="#ArialMT-70" x="188.916016"/>
      <use xlink:href="#ArialMT-6c" x="244.53125"/>
      <use xlink:href="#ArialMT-65" x="266.748047"/>
      <use xlink:href="#ArialMT-73" x="322.363281"/>
      <use xlink:href="#ArialMT-20" x="372.363281"/>
      <use xlink:href="#ArialMT-70" x="400.146484"/>
      <use xlink:href="#ArialMT-65" x="455.761719"/>
      <use xlink:href="#ArialMT-72" x="511.376953"/>
      <use xlink:href="#ArialMT-20" x="544.677734"/>
      <use xlink:href="#ArialMT-73" x="572.460938"/>
      <use xlink:href="#ArialMT-65" x="622.460938"/>
      <use xlink:href="#ArialMT-63" x="678.076172"/>
      <use xlink:href="#ArialMT-6f" x="728.076172"/>
      <use xlink:href="#ArialMT-6e" x="783.691406"/>
      <use xlink:href="#ArialMT-64" x="839.306641"/>
      <use xlink:href="#ArialMT-20" x="894.921875"/>
      <use xlink:href="#ArialMT-28" x="922.705078"/>
      <use xlink:href="#ArialMT-61" x="956.005859"/>
      <use xlink:href="#ArialMT-76" x="1011.621094"/>
      <use xlink:href="#ArialMT-67" x="1061.621094"/>
      <use xlink:href="#ArialMT-20" x="1117.236328"/>
      <use xlink:href="#ArialMT-70" x="1145.019531"/>
      <use xlink:href="#ArialMT-65" x="1200.634766"/>
      <use xlink:href="#ArialMT-72" x="1256.25"/>
      <use xlink:href="#ArialMT-20" x="1289.550781"/>
      <use xlink:href="#ArialMT-65" x="1317.333984"/>
      <use xlink:href="#ArialMT-70" x="1372.949219"/>
      <use xlink:href="#ArialMT-6f" x="1428.564453"/>
      <use xlink:href="#ArialMT-63" x="1484.179688"/>
      <use xlink:href="#ArialMT-68" x="1534.179688"/>
      <use xlink:href="#ArialMT-29" x="1589.794922"/>
     </g>
    </g>
   </g>
   <g id="matplotlib.axis_2">
    <g id="ytick_1">
     <g id="text_5">
      <!-- arrow -->
      <g style="fill: #262626" transform="translate(78.715469 43.378137) scale(0.11 -0.11)">
       <defs>
        <path id="ArialMT-77" d="M 1034 0
L 19 3319
L 600 3319
L 1128 1403
L 1325 691
Q 1338 744 1497 1375
L 2025 3319
L 2603 3319
L 3100 1394
L 3266 759
L 3456 1400
L 4025 3319
L 4572 3319
L 3534 0
L 2950 0
L 2422 1988
L 2294 2553
L 1622 0
L 1034 0
z
" transform="scale(0.015625)"/>
       </defs>
       <use xlink:href="#ArialMT-61"/>
       <use xlink:href="#ArialMT-72" x="55.615234"/>
       <use xlink:href="#ArialMT-72" x="88.916016"/>
       <use xlink:href="#ArialMT-6f" x="122.216797"/>
       <use xlink:href="#ArialMT-77" x="177.832031"/>
      </g>
     </g>
    </g>
    <g id="ytick_2">
     <g id="text_6">
      <!-- h5py -->
      <g style="fill: #262626" transform="translate(82.367812 77.508316) scale(0.11 -0.11)">
       <defs>
        <path id="ArialMT-79" d="M 397 -1278
L 334 -750
Q 519 -800 656 -800
Q 844 -800 956 -737
Q 1069 -675 1141 -563
Q 1194 -478 1313 -144
Q 1328 -97 1363 -6
L 103 3319
L 709 3319
L 1400 1397
Q 1534 1031 1641 628
Q 1738 1016 1872 1384
L 2581 3319
L 3144 3319
L 1881 -56
Q 1678 -603 1566 -809
Q 1416 -1088 1222 -1217
Q 1028 -1347 759 -1347
Q 597 -1347 397 -1278
z
" transform="scale(0.015625)"/>
       </defs>
       <use xlink:href="#ArialMT-68"/>
       <use xlink:href="#ArialMT-35" x="55.615234"/>
       <use xlink:href="#ArialMT-70" x="111.230469"/>
       <use xlink:href="#ArialMT-79" x="166.845703"/>
      </g>
     </g>
    </g>
    <g id="ytick_3">
     <g id="text_7">
      <!-- parquet -->
      <g style="fill: #262626" transform="translate(68.915156 111.638496) scale(0.11 -0.11)">
       <defs>
        <path id="ArialMT-71" d="M 2538 -1272
L 2538 353
Q 2406 169 2170 47
Q 1934 -75 1669 -75
Q 1078 -75 651 397
Q 225 869 225 1691
Q 225 2191 398 2587
Q 572 2984 901 3189
Q 1231 3394 1625 3394
Q 2241 3394 2594 2875
L 2594 3319
L 3100 3319
L 3100 -1272
L 2538 -1272
z
M 803 1669
Q 803 1028 1072 708
Q 1341 388 1716 388
Q 2075 388 2334 692
Q 2594 997 2594 1619
Q 2594 2281 2320 2615
Q 2047 2950 1678 2950
Q 1313 2950 1058 2639
Q 803 2328 803 1669
z
" transform="scale(0.015625)"/>
        <path id="ArialMT-75" d="M 2597 0
L 2597 488
Q 2209 -75 1544 -75
Q 1250 -75 995 37
Q 741 150 617 320
Q 494 491 444 738
Q 409 903 409 1263
L 409 3319
L 972 3319
L 972 1478
Q 972 1038 1006 884
Q 1059 663 1231 536
Q 1403 409 1656 409
Q 1909 409 2131 539
Q 2353 669 2445 892
Q 2538 1116 2538 1541
L 2538 3319
L 3100 3319
L 3100 0
L 2597 0
z
" transform="scale(0.015625)"/>
        <path id="ArialMT-74" d="M 1650 503
L 1731 6
Q 1494 -44 1306 -44
Q 1000 -44 831 53
Q 663 150 594 308
Q 525 466 525 972
L 525 2881
L 113 2881
L 113 3319
L 525 3319
L 525 4141
L 1084 4478
L 1084 3319
L 1650 3319
L 1650 2881
L 1084 2881
L 1084 941
Q 1084 700 1114 631
Q 1144 563 1211 522
Q 1278 481 1403 481
Q 1497 481 1650 503
z
" transform="scale(0.015625)"/>
       </defs>
       <use xlink:href="#ArialMT-70"/>
       <use xlink:href="#ArialMT-61" x="55.615234"/>
       <use xlink:href="#ArialMT-72" x="111.230469"/>
       <use xlink:href="#ArialMT-71" x="144.53125"/>
       <use xlink:href="#ArialMT-75" x="200.146484"/>
       <use xlink:href="#ArialMT-65" x="255.761719"/>
       <use xlink:href="#ArialMT-74" x="311.376953"/>
      </g>
     </g>
    </g>
    <g id="ytick_4">
     <g id="text_8">
      <!-- polars (parquet) -->
      <g style="fill: #262626" transform="translate(28.576094 145.835707) scale(0.11 -0.11)">
       <use xlink:href="#ArialMT-70"/>
       <use xlink:href="#ArialMT-6f" x="55.615234"/>
       <use xlink:href="#ArialMT-6c" x="111.230469"/>
       <use xlink:href="#ArialMT-61" x="133.447266"/>
       <use xlink:href="#ArialMT-72" x="189.0625"/>
       <use xlink:href="#ArialMT-73" x="222.363281"/>
       <use xlink:href="#ArialMT-20" x="272.363281"/>
       <use xlink:href="#ArialMT-28" x="300.146484"/>
       <use xlink:href="#ArialMT-70" x="333.447266"/>
       <use xlink:href="#ArialMT-61" x="389.0625"/>
       <use xlink:href="#ArialMT-72" x="444.677734"/>
       <use xlink:href="#ArialMT-71" x="477.978516"/>
       <use xlink:href="#ArialMT-75" x="533.59375"/>
       <use xlink:href="#ArialMT-65" x="589.208984"/>
       <use xlink:href="#ArialMT-74" x="644.824219"/>
       <use xlink:href="#ArialMT-29" x="672.607422"/>
      </g>
     </g>
    </g>
    <g id="ytick_5">
     <g id="text_9">
      <!-- tensorstore (zarr v2) -->
      <g style="fill: #262626" transform="translate(7.2 179.965887) scale(0.11 -0.11)">
       <defs>
        <path id="ArialMT-7a" d="M 125 0
L 125 456
L 2238 2881
Q 1878 2863 1603 2863
L 250 2863
L 250 3319
L 2963 3319
L 2963 2947
L 1166 841
L 819 456
Q 1197 484 1528 484
L 3063 484
L 3063 0
L 125 0
z
" transform="scale(0.015625)"/>
        <path id="ArialMT-32" d="M 3222 541
L 3222 0
L 194 0
Q 188 203 259 391
Q 375 700 629 1000
Q 884 1300 1366 1694
Q 2113 2306 2375 2664
Q 2638 3022 2638 3341
Q 2638 3675 2398 3904
Q 2159 4134 1775 4134
Q 1369 4134 1125 3890
Q 881 3647 878 3216
L 300 3275
Q 359 3922 746 4261
Q 1134 4600 1788 4600
Q 2447 4600 2831 4234
Q 3216 3869 3216 3328
Q 3216 3053 3103 2787
Q 2991 2522 2730 2228
Q 2469 1934 1863 1422
Q 1356 997 1212 845
Q 1069 694 975 541
L 3222 541
z
" transform="scale(0.015625)"/>
       </defs>
       <use xlink:href="#ArialMT-74"/>
       <use xlink:href="#ArialMT-65" x="27.783203"/>
       <use xlink:href="#ArialMT-6e" x="83.398438"/>
       <use xlink:href="#ArialMT-73" x="139.013672"/>
       <use xlink:href="#ArialMT-6f" x="189.013672"/>
       <use xlink:href="#ArialMT-72" x="244.628906"/>
       <use xlink:href="#ArialMT-73" x="277.929688"/>
       <use xlink:href="#ArialMT-74" x="327.929688"/>
       <use xlink:href="#ArialMT-6f" x="355.712891"/>
       <use xlink:href="#ArialMT-72" x="411.328125"/>
       <use xlink:href="#ArialMT-65" x="444.628906"/>
       <use xlink:href="#ArialMT-20" x="500.244141"/>
       <use xlink:href="#ArialMT-28" x="528.027344"/>
       <use xlink:href="#ArialMT-7a" x="561.328125"/>
       <use xlink:href="#ArialMT-61" x="611.328125"/>
       <use xlink:href="#ArialMT-72" x="666.943359"/>
       <use xlink:href="#ArialMT-72" x="700.244141"/>
       <use xlink:href="#ArialMT-20" x="733.544922"/>
       <use xlink:href="#ArialMT-76" x="761.328125"/>
       <use xlink:href="#ArialMT-32" x="811.328125"/>
       <use xlink:href="#ArialMT-29" x="866.943359"/>
      </g>
     </g>
    </g>
    <g id="ytick_6">
     <g id="text_10">
      <!-- tensorstore (zarr v3) -->
      <g style="fill: #262626" transform="translate(7.2 214.096066) scale(0.11 -0.11)">
       <use xlink:href="#ArialMT-74"/>
       <use xlink:href="#ArialMT-65" x="27.783203"/>
       <use xlink:href="#ArialMT-6e" x="83.398438"/>
       <use xlink:href="#ArialMT-73" x="139.013672"/>
       <use xlink:href="#ArialMT-6f" x="189.013672"/>
       <use xlink:href="#ArialMT-72" x="244.628906"/>
       <use xlink:href="#ArialMT-73" x="277.929688"/>
       <use xlink:href="#ArialMT-74" x="327.929688"/>
       <use xlink:href="#ArialMT-6f" x="355.712891"/>
       <use xlink:href="#ArialMT-72" x="411.328125"/>
       <use xlink:href="#ArialMT-65" x="444.628906"/>
       <use xlink:href="#ArialMT-20" x="500.244141"/>
       <use xlink:href="#ArialMT-28" x="528.027344"/>
       <use xlink:href="#ArialMT-7a" x="561.328125"/>
       <use xlink:href="#ArialMT-61" x="611.328125"/>
       <use xlink:href="#ArialMT-72" x="666.943359"/>
       <use xlink:href="#ArialMT-72" x="700.244141"/>
       <use xlink:href="#ArialMT-20" x="733.544922"/>
       <use xlink:href="#ArialMT-76" x="761.328125"/>
       <use xlink:href="#ArialMT-33" x="811.328125"/>
       <use xlink:href="#ArialMT-29" x="866.943359"/>
      </g>
     </g>
    </g>
    <g id="ytick_7">
     <g id="text_11">
      <!-- tiledbsoma -->
      <g style="fill: #262626" transform="translate(53.027031 248.159215) scale(0.11 -0.11)">
       <defs>
        <path id="ArialMT-69" d="M 425 3934
L 425 4581
L 988 4581
L 988 3934
L 425 3934
z
M 425 0
L 425 3319
L 988 3319
L 988 0
L 425 0
z
" transform="scale(0.015625)"/>
        <path id="ArialMT-62" d="M 941 0
L 419 0
L 419 4581
L 981 4581
L 981 2947
Q 1338 3394 1891 3394
Q 2197 3394 2470 3270
Q 2744 3147 2920 2923
Q 3097 2700 3197 2384
Q 3297 2069 3297 1709
Q 3297 856 2875 390
Q 2453 -75 1863 -75
Q 1275 -75 941 416
L 941 0
z
M 934 1684
Q 934 1088 1097 822
Q 1363 388 1816 388
Q 2184 388 2453 708
Q 2722 1028 2722 1663
Q 2722 2313 2464 2622
Q 2206 2931 1841 2931
Q 1472 2931 1203 2611
Q 934 2291 934 1684
z
" transform="scale(0.015625)"/>
       </defs>
       <use xlink:href="#ArialMT-74"/>
       <use xlink:href="#ArialMT-69" x="27.783203"/>
       <use xlink:href="#ArialMT-6c" x="50"/>
       <use xlink:href="#ArialMT-65" x="72.216797"/>
       <use xlink:href="#ArialMT-64" x="127.832031"/>
       <use xlink:href="#ArialMT-62" x="183.447266"/>
       <use xlink:href="#ArialMT-73" x="239.0625"/>
       <use xlink:href="#ArialMT-6f" x="289.0625"/>
       <use xlink:href="#ArialMT-6d" x="344.677734"/>
       <use xlink:href="#ArialMT-61" x="427.978516"/>
      </g>
     </g>
    </g>
    <g id="ytick_8">
     <g id="text_12">
      <!-- zarr -->
      <g style="fill: #262626" transform="translate(87.276563 282.289395) scale(0.11 -0.11)">
       <use xlink:href="#ArialMT-7a"/>
       <use xlink:href="#ArialMT-61" x="50"/>
       <use xlink:href="#ArialMT-72" x="105.615234"/>
       <use xlink:href="#ArialMT-72" x="138.916016"/>
      </g>
     </g>
    </g>
   </g>
   <g id="patch_3">
    <path d="M 115.718906 295.417687
L 115.718906 22.37625
" style="fill: none; stroke: #ffffff; stroke-width: 1.25; stroke-linejoin: miter; stroke-linecap: square"/>
   </g>
   <g id="patch_4">
    <path d="M 418.508906 295.417687
L 418.508906 22.37625
" style="fill: none; stroke: #ffffff; stroke-width: 1.25; stroke-linejoin: miter; stroke-linecap: square"/>
   </g>
   <g id="patch_5">
    <path d="M 115.718906 295.417687
L 418.508906 295.417687
" style="fill: none; stroke: #ffffff; stroke-width: 1.25; stroke-linejoin: miter; stroke-linecap: square"/>
   </g>
   <g id="patch_6">
    <path d="M 115.718906 22.37625
L 418.508906 22.37625
" style="fill: none; stroke: #ffffff; stroke-width: 1.25; stroke-linejoin: miter; stroke-linecap: square"/>
   </g>
   <g id="PathCollection_1">
    <defs>
     <path id="C0_0_0ba23bfbfc" d="M 0 3
C 0.795609 3 1.55874 2.683901 2.12132 2.12132
C 2.683901 1.55874 3 0.795609 3 -0
C 3 -0.795609 2.683901 -1.55874 2.12132 -2.12132
C 1.55874 -2.683901 0.795609 -3 0 -3
C -0.795609 -3 -1.55874 -2.683901 -2.12132 -2.12132
C -2.683901 -1.55874 -3 -0.795609 -3 0
C -3 0.795609 -2.683901 1.55874 -2.12132 2.12132
C -1.55874 2.683901 -0.795609 3 0 3
z
"/>
    </defs>
    <g clip-path="url(#pa73a714d9b)">
     <use xlink:href="#C0_0_0ba23bfbfc" x="218.042349" y="46.159944" style="fill: #55a868; fill-opacity: 0.7"/>
    </g>
    <g clip-path="url(#pa73a714d9b)">
     <use xlink:href="#C0_0_0ba23bfbfc" x="218.582292" y="36.77748" style="fill: #55a868; fill-opacity: 0.7"/>
    </g>
    <g clip-path="url(#pa73a714d9b)">
     <use xlink:href="#C0_0_0ba23bfbfc" x="219.32801" y="47.581408" style="fill: #55a868; fill-opacity: 0.7"/>
    </g>
    <g clip-path="url(#pa73a714d9b)">
     <use xlink:href="#C0_0_0ba23bfbfc" x="219.829375" y="46.945037" style="fill: #55a868; fill-opacity: 0.7"/>
    </g>
    <g clip-path="url(#pa73a714d9b)">
     <use xlink:href="#C0_0_0ba23bfbfc" x="201.522403" y="32.736871" style="fill: #8172b3; fill-opacity: 0.7"/>
    </g>
    <g clip-path="url(#pa73a714d9b)">
     <use xlink:href="#C0_0_0ba23bfbfc" x="204.288362" y="44.637547" style="fill: #8172b3; fill-opacity: 0.7"/>
    </g>
    <g clip-path="url(#pa73a714d9b)">
     <use xlink:href="#C0_0_0ba23bfbfc" x="204.728032" y="33.41857" style="fill: #8172b3; fill-opacity: 0.7"/>
    </g>
    <g clip-path="url(#pa73a714d9b)">
     <use xlink:href="#C0_0_0ba23bfbfc" x="204.619657" y="30.913766" style="fill: #8172b3; fill-opacity: 0.7"/>
    </g>
   </g>
   <g id="PathCollection_2">
    <defs>
     <path id="C1_0_5fba3872cb" d="M 0 3
C 0.795609 3 1.55874 2.683901 2.12132 2.12132
C 2.683901 1.55874 3 0.795609 3 -0
C 3 -0.795609 2.683901 -1.55874 2.12132 -2.12132
C 1.55874 -2.683901 0.795609 -3 0 -3
C -0.795609 -3 -1.55874 -2.683901 -2.12132 -2.12132
C -2.683901 -1.55874 -3 -0.795609 -3 0
C -3 0.795609 -2.683901 1.55874 -2.12132 2.12132
C -1.55874 2.683901 -0.795609 3 0 3
z
"/>
    </defs>
    <g clip-path="url(#pa73a714d9b)">
     <use xlink:href="#C1_0_5fba3872cb" x="352.758813" y="66.642018" style="fill: #4c72b0; fill-opacity: 0.7"/>
    </g>
    <g clip-path="url(#pa73a714d9b)">
     <use xlink:href="#C1_0_5fba3872cb" x="353.11029" y="76.747076" style="fill: #4c72b0; fill-opacity: 0.7"/>
    </g>
    <g clip-path="url(#pa73a714d9b)">
     <use xlink:href="#C1_0_5fba3872cb" x="353.129265" y="80.184622" style="fill: #4c72b0; fill-opacity: 0.7"/>
    </g>
    <g clip-path="url(#pa73a714d9b)">
     <use xlink:href="#C1_0_5fba3872cb" x="353.187576" y="63.396091" style="fill: #4c72b0; fill-opacity: 0.7"/>
    </g>
    <g clip-path="url(#pa73a714d9b)">
     <use xlink:href="#C1_0_5fba3872cb" x="322.557467" y="81.76829" style="fill: #dd8452; fill-opacity: 0.7"/>
    </g>
    <g clip-path="url(#pa73a714d9b)">
     <use xlink:href="#C1_0_5fba3872cb" x="321.972141" y="72.866545" style="fill: #dd8452; fill-opacity: 0.7"/>
    </g>
    <g clip-path="url(#pa73a714d9b)">
     <use xlink:href="#C1_0_5fba3872cb" x="322.378574" y="80.920092" style="fill: #dd8452; fill-opacity: 0.7"/>
    </g>
    <g clip-path="url(#pa73a714d9b)">
     <use xlink:href="#C1_0_5fba3872cb" x="322.983805" y="65.671514" style="fill: #dd8452; fill-opacity: 0.7"/>
    </g>
    <g clip-path="url(#pa73a714d9b)">
     <use xlink:href="#C1_0_5fba3872cb" x="404.062088" y="75.038136" style="fill: #55a868; fill-opacity: 0.7"/>
    </g>
    <g clip-path="url(#pa73a714d9b)">
     <use xlink:href="#C1_0_5fba3872cb" x="398.851655" y="64.003888" style="fill: #55a868; fill-opacity: 0.7"/>
    </g>
    <g clip-path="url(#pa73a714d9b)">
     <use xlink:href="#C1_0_5fba3872cb" x="404.375416" y="67.634377" style="fill: #55a868; fill-opacity: 0.7"/>
    </g>
    <g clip-path="url(#pa73a714d9b)">
     <use xlink:href="#C1_0_5fba3872cb" x="404.745724" y="74.79677" style="fill: #55a868; fill-opacity: 0.7"/>
    </g>
    <g clip-path="url(#pa73a714d9b)">
     <use xlink:href="#C1_0_5fba3872cb" x="365.26008" y="82.404374" style="fill: #c44e52; fill-opacity: 0.7"/>
    </g>
    <g clip-path="url(#pa73a714d9b)">
     <use xlink:href="#C1_0_5fba3872cb" x="365.29952" y="74.249478" style="fill: #c44e52; fill-opacity: 0.7"/>
    </g>
    <g clip-path="url(#pa73a714d9b)">
     <use xlink:href="#C1_0_5fba3872cb" x="365.116006" y="70.337001" style="fill: #c44e52; fill-opacity: 0.7"/>
    </g>
    <g clip-path="url(#pa73a714d9b)">
     <use xlink:href="#C1_0_5fba3872cb" x="365.160667" y="81.324399" style="fill: #c44e52; fill-opacity: 0.7"/>
    </g>
   </g>
   <g id="PathCollection_3">
    <defs>
     <path id="C2_0_b8654208f2" d="M 0 3
C 0.795609 3 1.55874 2.683901 2.12132 2.12132
C 2.683901 1.55874 3 0.795609 3 -0
C 3 -0.795609 2.683901 -1.55874 2.12132 -2.12132
C 1.55874 -2.683901 0.795609 -3 0 -3
C -0.795609 -3 -1.55874 -2.683901 -2.12132 -2.12132
C -2.683901 -1.55874 -3 -0.795609 -3 0
C -3 0.795609 -2.683901 1.55874 -2.12132 2.12132
C -1.55874 2.683901 -0.795609 3 0 3
z
"/>
    </defs>
    <g clip-path="url(#pa73a714d9b)">
     <use xlink:href="#C2_0_b8654208f2" x="349.473729" y="105.876165" style="fill: #55a868; fill-opacity: 0.7"/>
    </g>
    <g clip-path="url(#pa73a714d9b)">
     <use xlink:href="#C2_0_b8654208f2" x="362.462611" y="111.535367" style="fill: #55a868; fill-opacity: 0.7"/>
    </g>
    <g clip-path="url(#pa73a714d9b)">
     <use xlink:href="#C2_0_b8654208f2" x="360.636767" y="110.583025" style="fill: #55a868; fill-opacity: 0.7"/>
    </g>
    <g clip-path="url(#pa73a714d9b)">
     <use xlink:href="#C2_0_b8654208f2" x="363.620779" y="99.487414" style="fill: #55a868; fill-opacity: 0.7"/>
    </g>
    <g clip-path="url(#pa73a714d9b)">
     <use xlink:href="#C2_0_b8654208f2" x="193.129437" y="103.263451" style="fill: #8172b3; fill-opacity: 0.7"/>
    </g>
    <g clip-path="url(#pa73a714d9b)">
     <use xlink:href="#C2_0_b8654208f2" x="192.77285" y="98.47484" style="fill: #8172b3; fill-opacity: 0.7"/>
    </g>
    <g clip-path="url(#pa73a714d9b)">
     <use xlink:href="#C2_0_b8654208f2" x="192.76955" y="103.466334" style="fill: #8172b3; fill-opacity: 0.7"/>
    </g>
    <g clip-path="url(#pa73a714d9b)">
     <use xlink:href="#C2_0_b8654208f2" x="193.467725" y="116.374945" style="fill: #8172b3; fill-opacity: 0.7"/>
    </g>
    <g clip-path="url(#pa73a714d9b)">
     <use xlink:href="#C2_0_b8654208f2" x="193.690362" y="113.895086" style="fill: #937860; fill-opacity: 0.7"/>
    </g>
    <g clip-path="url(#pa73a714d9b)">
     <use xlink:href="#C2_0_b8654208f2" x="193.063134" y="114.943847" style="fill: #937860; fill-opacity: 0.7"/>
    </g>
    <g clip-path="url(#pa73a714d9b)">
     <use xlink:href="#C2_0_b8654208f2" x="192.814925" y="115.140293" style="fill: #937860; fill-opacity: 0.7"/>
    </g>
    <g clip-path="url(#pa73a714d9b)">
     <use xlink:href="#C2_0_b8654208f2" x="191.222062" y="114.145492" style="fill: #937860; fill-opacity: 0.7"/>
    </g>
   </g>
   <g id="PathCollection_4">
    <defs>
     <path id="C3_0_c5034df3cc" d="M 0 3
C 0.795609 3 1.55874 2.683901 2.12132 2.12132
C 2.683901 1.55874 3 0.795609 3 -0
C 3 -0.795609 2.683901 -1.55874 2.12132 -2.12132
C 1.55874 -2.683901 0.795609 -3 0 -3
C -0.795609 -3 -1.55874 -2.683901 -2.12132 -2.12132
C -2.683901 -1.55874 -3 -0.795609 -3 0
C -3 0.795609 -2.683901 1.55874 -2.12132 2.12132
C -1.55874 2.683901 -0.795609 3 0 3
z
"/>
    </defs>
    <g clip-path="url(#pa73a714d9b)">
     <use xlink:href="#C3_0_c5034df3cc" x="330.644663" y="136.613622" style="fill: #55a868; fill-opacity: 0.7"/>
    </g>
    <g clip-path="url(#pa73a714d9b)">
     <use xlink:href="#C3_0_c5034df3cc" x="331.640591" y="147.215038" style="fill: #55a868; fill-opacity: 0.7"/>
    </g>
    <g clip-path="url(#pa73a714d9b)">
     <use xlink:href="#C3_0_c5034df3cc" x="332.636071" y="133.197672" style="fill: #55a868; fill-opacity: 0.7"/>
    </g>
    <g clip-path="url(#pa73a714d9b)">
     <use xlink:href="#C3_0_c5034df3cc" x="333.443859" y="137.480944" style="fill: #55a868; fill-opacity: 0.7"/>
    </g>
   </g>
   <g id="PathCollection_5">
    <defs>
     <path id="C4_0_8991486456" d="M 0 3
C 0.795609 3 1.55874 2.683901 2.12132 2.12132
C 2.683901 1.55874 3 0.795609 3 -0
C 3 -0.795609 2.683901 -1.55874 2.12132 -2.12132
C 1.55874 -2.683901 0.795609 -3 0 -3
C -0.795609 -3 -1.55874 -2.683901 -2.12132 -2.12132
C -2.683901 -1.55874 -3 -0.795609 -3 0
C -3 0.795609 -2.683901 1.55874 -2.12132 2.12132
C -1.55874 2.683901 -0.795609 3 0 3
z
"/>
    </defs>
    <g clip-path="url(#pa73a714d9b)">
     <use xlink:href="#C4_0_8991486456" x="312.527689" y="181.516377" style="fill: #8172b3; fill-opacity: 0.7"/>
    </g>
    <g clip-path="url(#pa73a714d9b)">
     <use xlink:href="#C4_0_8991486456" x="331.956941" y="165.94176" style="fill: #8172b3; fill-opacity: 0.7"/>
    </g>
    <g clip-path="url(#pa73a714d9b)">
     <use xlink:href="#C4_0_8991486456" x="332.216951" y="178.277025" style="fill: #8172b3; fill-opacity: 0.7"/>
    </g>
    <g clip-path="url(#pa73a714d9b)">
     <use xlink:href="#C4_0_8991486456" x="332.28407" y="171.765231" style="fill: #8172b3; fill-opacity: 0.7"/>
    </g>
    <g clip-path="url(#pa73a714d9b)">
     <use xlink:href="#C4_0_8991486456" x="234.472519" y="167.790348" style="fill: #937860; fill-opacity: 0.7"/>
    </g>
    <g clip-path="url(#pa73a714d9b)">
     <use xlink:href="#C4_0_8991486456" x="233.490767" y="179.690332" style="fill: #937860; fill-opacity: 0.7"/>
    </g>
    <g clip-path="url(#pa73a714d9b)">
     <use xlink:href="#C4_0_8991486456" x="233.755142" y="185.060679" style="fill: #937860; fill-opacity: 0.7"/>
    </g>
    <g clip-path="url(#pa73a714d9b)">
     <use xlink:href="#C4_0_8991486456" x="233.663026" y="175.376376" style="fill: #937860; fill-opacity: 0.7"/>
    </g>
   </g>
   <g id="PathCollection_6">
    <defs>
     <path id="C5_0_6890782644" d="M 0 3
C 0.795609 3 1.55874 2.683901 2.12132 2.12132
C 2.683901 1.55874 3 0.795609 3 -0
C 3 -0.795609 2.683901 -1.55874 2.12132 -2.12132
C 1.55874 -2.683901 0.795609 -3 0 -3
C -0.795609 -3 -1.55874 -2.683901 -2.12132 -2.12132
C -2.683901 -1.55874 -3 -0.795609 -3 0
C -3 0.795609 -2.683901 1.55874 -2.12132 2.12132
C -1.55874 2.683901 -0.795609 3 0 3
z
"/>
    </defs>
    <g clip-path="url(#pa73a714d9b)">
     <use xlink:href="#C5_0_6890782644" x="332.027936" y="202.338055" style="fill: #8172b3; fill-opacity: 0.7"/>
    </g>
    <g clip-path="url(#pa73a714d9b)">
     <use xlink:href="#C5_0_6890782644" x="361.807944" y="205.823106" style="fill: #8172b3; fill-opacity: 0.7"/>
    </g>
    <g clip-path="url(#pa73a714d9b)">
     <use xlink:href="#C5_0_6890782644" x="361.917997" y="208.607311" style="fill: #8172b3; fill-opacity: 0.7"/>
    </g>
    <g clip-path="url(#pa73a714d9b)">
     <use xlink:href="#C5_0_6890782644" x="361.942754" y="216.075355" style="fill: #8172b3; fill-opacity: 0.7"/>
    </g>
    <g clip-path="url(#pa73a714d9b)">
     <use xlink:href="#C5_0_6890782644" x="280.50145" y="204.452788" style="fill: #937860; fill-opacity: 0.7"/>
    </g>
    <g clip-path="url(#pa73a714d9b)">
     <use xlink:href="#C5_0_6890782644" x="283.68052" y="208.717968" style="fill: #937860; fill-opacity: 0.7"/>
    </g>
    <g clip-path="url(#pa73a714d9b)">
     <use xlink:href="#C5_0_6890782644" x="279.886564" y="218.08612" style="fill: #937860; fill-opacity: 0.7"/>
    </g>
    <g clip-path="url(#pa73a714d9b)">
     <use xlink:href="#C5_0_6890782644" x="285.397153" y="218.490257" style="fill: #937860; fill-opacity: 0.7"/>
    </g>
   </g>
   <g id="PathCollection_7">
    <defs>
     <path id="C6_0_9fa42f4f24" d="M 0 3
C 0.795609 3 1.55874 2.683901 2.12132 2.12132
C 2.683901 1.55874 3 0.795609 3 -0
C 3 -0.795609 2.683901 -1.55874 2.12132 -2.12132
C 1.55874 -2.683901 0.795609 -3 0 -3
C -0.795609 -3 -1.55874 -2.683901 -2.12132 -2.12132
C -2.683901 -1.55874 -3 -0.795609 -3 0
C -3 0.795609 -2.683901 1.55874 -2.12132 2.12132
C -1.55874 2.683901 -0.795609 3 0 3
z
"/>
    </defs>
    <g clip-path="url(#pa73a714d9b)">
     <use xlink:href="#C6_0_9fa42f4f24" x="249.576629" y="234.541551" style="fill: #4c72b0; fill-opacity: 0.7"/>
    </g>
    <g clip-path="url(#pa73a714d9b)">
     <use xlink:href="#C6_0_9fa42f4f24" x="249.927514" y="238.233478" style="fill: #4c72b0; fill-opacity: 0.7"/>
    </g>
    <g clip-path="url(#pa73a714d9b)">
     <use xlink:href="#C6_0_9fa42f4f24" x="249.071743" y="245.689953" style="fill: #4c72b0; fill-opacity: 0.7"/>
    </g>
    <g clip-path="url(#pa73a714d9b)">
     <use xlink:href="#C6_0_9fa42f4f24" x="249.363252" y="234.447833" style="fill: #4c72b0; fill-opacity: 0.7"/>
    </g>
    <g clip-path="url(#pa73a714d9b)">
     <use xlink:href="#C6_0_9fa42f4f24" x="165.783801" y="243.256021" style="fill: #dd8452; fill-opacity: 0.7"/>
    </g>
    <g clip-path="url(#pa73a714d9b)">
     <use xlink:href="#C6_0_9fa42f4f24" x="165.69964" y="254.01812" style="fill: #dd8452; fill-opacity: 0.7"/>
    </g>
    <g clip-path="url(#pa73a714d9b)">
     <use xlink:href="#C6_0_9fa42f4f24" x="165.674966" y="244.438379" style="fill: #dd8452; fill-opacity: 0.7"/>
    </g>
    <g clip-path="url(#pa73a714d9b)">
     <use xlink:href="#C6_0_9fa42f4f24" x="165.6987" y="253.481524" style="fill: #dd8452; fill-opacity: 0.7"/>
    </g>
   </g>
   <g id="PathCollection_8">
    <defs>
     <path id="C7_0_a280bd0a77" d="M 0 3
C 0.795609 3 1.55874 2.683901 2.12132 2.12132
C 2.683901 1.55874 3 0.795609 3 -0
C 3 -0.795609 2.683901 -1.55874 2.12132 -2.12132
C 1.55874 -2.683901 0.795609 -3 0 -3
C -0.795609 -3 -1.55874 -2.683901 -2.12132 -2.12132
C -2.683901 -1.55874 -3 -0.795609 -3 0
C -3 0.795609 -2.683901 1.55874 -2.12132 2.12132
C -1.55874 2.683901 -0.795609 3 0 3
z
"/>
    </defs>
    <g clip-path="url(#pa73a714d9b)">
     <use xlink:href="#C7_0_a280bd0a77" x="199.748669" y="270.498323" style="fill: #4c72b0; fill-opacity: 0.7"/>
    </g>
    <g clip-path="url(#pa73a714d9b)">
     <use xlink:href="#C7_0_a280bd0a77" x="199.748072" y="278.018879" style="fill: #4c72b0; fill-opacity: 0.7"/>
    </g>
    <g clip-path="url(#pa73a714d9b)">
     <use xlink:href="#C7_0_a280bd0a77" x="199.902532" y="281.984966" style="fill: #4c72b0; fill-opacity: 0.7"/>
    </g>
    <g clip-path="url(#pa73a714d9b)">
     <use xlink:href="#C7_0_a280bd0a77" x="199.849468" y="275.853411" style="fill: #4c72b0; fill-opacity: 0.7"/>
    </g>
    <g clip-path="url(#pa73a714d9b)">
     <use xlink:href="#C7_0_a280bd0a77" x="197.53604" y="278.904298" style="fill: #dd8452; fill-opacity: 0.7"/>
    </g>
    <g clip-path="url(#pa73a714d9b)">
     <use xlink:href="#C7_0_a280bd0a77" x="197.492031" y="279.059967" style="fill: #dd8452; fill-opacity: 0.7"/>
    </g>
    <g clip-path="url(#pa73a714d9b)">
     <use xlink:href="#C7_0_a280bd0a77" x="197.576934" y="283.6784" style="fill: #dd8452; fill-opacity: 0.7"/>
    </g>
    <g clip-path="url(#pa73a714d9b)">
     <use xlink:href="#C7_0_a280bd0a77" x="197.554994" y="278.572578" style="fill: #dd8452; fill-opacity: 0.7"/>
    </g>
    <g clip-path="url(#pa73a714d9b)">
     <use xlink:href="#C7_0_a280bd0a77" x="259.144216" y="271.85773" style="fill: #55a868; fill-opacity: 0.7"/>
    </g>
    <g clip-path="url(#pa73a714d9b)">
     <use xlink:href="#C7_0_a280bd0a77" x="258.962243" y="282.173261" style="fill: #55a868; fill-opacity: 0.7"/>
    </g>
    <g clip-path="url(#pa73a714d9b)">
     <use xlink:href="#C7_0_a280bd0a77" x="258.987409" y="287.177804" style="fill: #55a868; fill-opacity: 0.7"/>
    </g>
    <g clip-path="url(#pa73a714d9b)">
     <use xlink:href="#C7_0_a280bd0a77" x="259.113688" y="286.891596" style="fill: #55a868; fill-opacity: 0.7"/>
    </g>
    <g clip-path="url(#pa73a714d9b)">
     <use xlink:href="#C7_0_a280bd0a77" x="129.514425" y="277.56134" style="fill: #c44e52; fill-opacity: 0.7"/>
    </g>
    <g clip-path="url(#pa73a714d9b)">
     <use xlink:href="#C7_0_a280bd0a77" x="129.551752" y="271.667594" style="fill: #c44e52; fill-opacity: 0.7"/>
    </g>
    <g clip-path="url(#pa73a714d9b)">
     <use xlink:href="#C7_0_a280bd0a77" x="129.51669" y="283.240647" style="fill: #c44e52; fill-opacity: 0.7"/>
    </g>
    <g clip-path="url(#pa73a714d9b)">
     <use xlink:href="#C7_0_a280bd0a77" x="129.482088" y="288.348986" style="fill: #c44e52; fill-opacity: 0.7"/>
    </g>
    <g clip-path="url(#pa73a714d9b)">
     <use xlink:href="#C7_0_a280bd0a77" x="331.439694" y="282.335994" style="fill: #8172b3; fill-opacity: 0.7"/>
    </g>
    <g clip-path="url(#pa73a714d9b)">
     <use xlink:href="#C7_0_a280bd0a77" x="331.179898" y="276.655208" style="fill: #8172b3; fill-opacity: 0.7"/>
    </g>
    <g clip-path="url(#pa73a714d9b)">
     <use xlink:href="#C7_0_a280bd0a77" x="331.551524" y="279.817644" style="fill: #8172b3; fill-opacity: 0.7"/>
    </g>
    <g clip-path="url(#pa73a714d9b)">
     <use xlink:href="#C7_0_a280bd0a77" x="331.671808" y="282.469649" style="fill: #8172b3; fill-opacity: 0.7"/>
    </g>
    <g clip-path="url(#pa73a714d9b)">
     <use xlink:href="#C7_0_a280bd0a77" x="188.728804" y="283.744968" style="fill: #937860; fill-opacity: 0.7"/>
    </g>
    <g clip-path="url(#pa73a714d9b)">
     <use xlink:href="#C7_0_a280bd0a77" x="188.703799" y="274.95671" style="fill: #937860; fill-opacity: 0.7"/>
    </g>
    <g clip-path="url(#pa73a714d9b)">
     <use xlink:href="#C7_0_a280bd0a77" x="188.703973" y="274.847954" style="fill: #937860; fill-opacity: 0.7"/>
    </g>
    <g clip-path="url(#pa73a714d9b)">
     <use xlink:href="#C7_0_a280bd0a77" x="188.811906" y="275.040735" style="fill: #937860; fill-opacity: 0.7"/>
    </g>
   </g>
   <g id="line2d_4"/>
   <g id="line2d_5"/>
   <g id="line2d_6"/>
   <g id="line2d_7"/>
   <g id="line2d_8"/>
   <g id="line2d_9"/>
   <g id="legend_1">
    <g id="patch_7">
     <path d="M 426.208906 124.535312
L 554.975937 124.535312
Q 557.175938 124.535312 557.175938 122.335312
L 557.175938 30.07625
Q 557.175938 27.87625 554.975937 27.87625
L 426.208906 27.87625
Q 424.008906 27.87625 424.008906 30.07625
L 424.008906 122.335312
Q 424.008906 124.535312 426.208906 124.535312
z
" style="fill: #eaeaf2; opacity: 0.8; stroke: #cccccc; stroke-linejoin: miter"/>
    </g>
    <g id="line2d_10">
     <defs>
      <path id="m8f6bc7b442" d="M 0 3
C 0.795609 3 1.55874 2.683901 2.12132 2.12132
C 2.683901 1.55874 3 0.795609 3 0
C 3 -0.795609 2.683901 -1.55874 2.12132 -2.12132
C 1.55874 -2.683901 0.795609 -3 0 -3
C -0.795609 -3 -1.55874 -2.683901 -2.12132 -2.12132
C -2.683901 -1.55874 -3 -0.795609 -3 0
C -3 0.795609 -2.683901 1.55874 -2.12132 2.12132
C -1.55874 2.683901 -0.795609 3 0 3
z
"/>
     </defs>
     <g>
      <use xlink:href="#m8f6bc7b442" x="439.408906" y="36.299844" style="fill: #4c72b0; fill-opacity: 0.7"/>
     </g>
    </g>
    <g id="text_13">
     <!-- sparse -->
     <g style="fill: #262626" transform="translate(459.208906 40.149844) scale(0.11 -0.11)">
      <use xlink:href="#ArialMT-73"/>
      <use xlink:href="#ArialMT-70" x="50"/>
      <use xlink:href="#ArialMT-61" x="105.615234"/>
      <use xlink:href="#ArialMT-72" x="161.230469"/>
      <use xlink:href="#ArialMT-73" x="194.53125"/>
      <use xlink:href="#ArialMT-65" x="244.53125"/>
     </g>
    </g>
    <g id="line2d_11">
     <defs>
      <path id="mcedbe2a8fc" d="M 0 3
C 0.795609 3 1.55874 2.683901 2.12132 2.12132
C 2.683901 1.55874 3 0.795609 3 0
C 3 -0.795609 2.683901 -1.55874 2.12132 -2.12132
C 1.55874 -2.683901 0.795609 -3 0 -3
C -0.795609 -3 -1.55874 -2.683901 -2.12132 -2.12132
C -2.683901 -1.55874 -3 -0.795609 -3 0
C -3 0.795609 -2.683901 1.55874 -2.12132 2.12132
C -1.55874 2.683901 -0.795609 3 0 3
z
"/>
     </defs>
     <g>
      <use xlink:href="#mcedbe2a8fc" x="439.408906" y="51.859687" style="fill: #dd8452; fill-opacity: 0.7"/>
     </g>
    </g>
    <g id="text_14">
     <!-- sparse_rand -->
     <g style="fill: #262626" transform="translate(459.208906 55.709687) scale(0.11 -0.11)">
      <defs>
       <path id="ArialMT-5f" d="M -97 -1272
L -97 -866
L 3631 -866
L 3631 -1272
L -97 -1272
z
" transform="scale(0.015625)"/>
      </defs>
      <use xlink:href="#ArialMT-73"/>
      <use xlink:href="#ArialMT-70" x="50"/>
      <use xlink:href="#ArialMT-61" x="105.615234"/>
      <use xlink:href="#ArialMT-72" x="161.230469"/>
      <use xlink:href="#ArialMT-73" x="194.53125"/>
      <use xlink:href="#ArialMT-65" x="244.53125"/>
      <use xlink:href="#ArialMT-5f" x="300.146484"/>
      <use xlink:href="#ArialMT-72" x="355.761719"/>
      <use xlink:href="#ArialMT-61" x="389.0625"/>
      <use xlink:href="#ArialMT-6e" x="444.677734"/>
      <use xlink:href="#ArialMT-64" x="500.292969"/>
     </g>
    </g>
    <g id="line2d_12">
     <defs>
      <path id="m8976ea7cff" d="M 0 3
C 0.795609 3 1.55874 2.683901 2.12132 2.12132
C 2.683901 1.55874 3 0.795609 3 0
C 3 -0.795609 2.683901 -1.55874 2.12132 -2.12132
C 1.55874 -2.683901 0.795609 -3 0 -3
C -0.795609 -3 -1.55874 -2.683901 -2.12132 -2.12132
C -2.683901 -1.55874 -3 -0.795609 -3 0
C -3 0.795609 -2.683901 1.55874 -2.12132 2.12132
C -1.55874 2.683901 -0.795609 3 0 3
z
"/>
     </defs>
     <g>
      <use xlink:href="#m8976ea7cff" x="439.408906" y="67.419531" style="fill: #55a868; fill-opacity: 0.7"/>
     </g>
    </g>
    <g id="text_15">
     <!-- dense -->
     <g style="fill: #262626" transform="translate(459.208906 71.269531) scale(0.11 -0.11)">
      <use xlink:href="#ArialMT-64"/>
      <use xlink:href="#ArialMT-65" x="55.615234"/>
      <use xlink:href="#ArialMT-6e" x="111.230469"/>
      <use xlink:href="#ArialMT-73" x="166.845703"/>
      <use xlink:href="#ArialMT-65" x="216.845703"/>
     </g>
    </g>
    <g id="line2d_13">
     <defs>
      <path id="m7eee409977" d="M 0 3
C 0.795609 3 1.55874 2.683901 2.12132 2.12132
C 2.683901 1.55874 3 0.795609 3 0
C 3 -0.795609 2.683901 -1.55874 2.12132 -2.12132
C 1.55874 -2.683901 0.795609 -3 0 -3
C -0.795609 -3 -1.55874 -2.683901 -2.12132 -2.12132
C -2.683901 -1.55874 -3 -0.795609 -3 0
C -3 0.795609 -2.683901 1.55874 -2.12132 2.12132
C -1.55874 2.683901 -0.795609 3 0 3
z
"/>
     </defs>
     <g>
      <use xlink:href="#m7eee409977" x="439.408906" y="82.979375" style="fill: #c44e52; fill-opacity: 0.7"/>
     </g>
    </g>
    <g id="text_16">
     <!-- dense_rand -->
     <g style="fill: #262626" transform="translate(459.208906 86.829375) scale(0.11 -0.11)">
      <use xlink:href="#ArialMT-64"/>
      <use xlink:href="#ArialMT-65" x="55.615234"/>
      <use xlink:href="#ArialMT-6e" x="111.230469"/>
      <use xlink:href="#ArialMT-73" x="166.845703"/>
      <use xlink:href="#ArialMT-65" x="216.845703"/>
      <use xlink:href="#ArialMT-5f" x="272.460938"/>
      <use xlink:href="#ArialMT-72" x="328.076172"/>
      <use xlink:href="#ArialMT-61" x="361.376953"/>
      <use xlink:href="#ArialMT-6e" x="416.992188"/>
      <use xlink:href="#ArialMT-64" x="472.607422"/>
     </g>
    </g>
    <g id="line2d_14">
     <defs>
      <path id="m5c6e6f460e" d="M 0 3
C 0.795609 3 1.55874 2.683901 2.12132 2.12132
C 2.683901 1.55874 3 0.795609 3 0
C 3 -0.795609 2.683901 -1.55874 2.12132 -2.12132
C 1.55874 -2.683901 0.795609 -3 0 -3
C -0.795609 -3 -1.55874 -2.683901 -2.12132 -2.12132
C -2.683901 -1.55874 -3 -0.795609 -3 0
C -3 0.795609 -2.683901 1.55874 -2.12132 2.12132
C -1.55874 2.683901 -0.795609 3 0 3
z
"/>
     </defs>
     <g>
      <use xlink:href="#m5c6e6f460e" x="439.408906" y="98.539219" style="fill: #8172b3; fill-opacity: 0.7"/>
     </g>
    </g>
    <g id="text_17">
     <!-- dense_chunk -->
     <g style="fill: #262626" transform="translate(459.208906 102.389219) scale(0.11 -0.11)">
      <defs>
       <path id="ArialMT-6b" d="M 425 0
L 425 4581
L 988 4581
L 988 1969
L 2319 3319
L 3047 3319
L 1778 2088
L 3175 0
L 2481 0
L 1384 1697
L 988 1316
L 988 0
L 425 0
z
" transform="scale(0.015625)"/>
      </defs>
      <use xlink:href="#ArialMT-64"/>
      <use xlink:href="#ArialMT-65" x="55.615234"/>
      <use xlink:href="#ArialMT-6e" x="111.230469"/>
      <use xlink:href="#ArialMT-73" x="166.845703"/>
      <use xlink:href="#ArialMT-65" x="216.845703"/>
      <use xlink:href="#ArialMT-5f" x="272.460938"/>
      <use xlink:href="#ArialMT-63" x="328.076172"/>
      <use xlink:href="#ArialMT-68" x="378.076172"/>
      <use xlink:href="#ArialMT-75" x="433.691406"/>
      <use xlink:href="#ArialMT-6e" x="489.306641"/>
      <use xlink:href="#ArialMT-6b" x="544.921875"/>
     </g>
    </g>
    <g id="line2d_15">
     <defs>
      <path id="m49fbfa5602" d="M 0 3
C 0.795609 3 1.55874 2.683901 2.12132 2.12132
C 2.683901 1.55874 3 0.795609 3 0
C 3 -0.795609 2.683901 -1.55874 2.12132 -2.12132
C 1.55874 -2.683901 0.795609 -3 0 -3
C -0.795609 -3 -1.55874 -2.683901 -2.12132 -2.12132
C -2.683901 -1.55874 -3 -0.795609 -3 0
C -3 0.795609 -2.683901 1.55874 -2.12132 2.12132
C -1.55874 2.683901 -0.795609 3 0 3
z
"/>
     </defs>
     <g>
      <use xlink:href="#m49fbfa5602" x="439.408906" y="114.099062" style="fill: #937860; fill-opacity: 0.7"/>
     </g>
    </g>
    <g id="text_18">
     <!-- dense_chunk_rand -->
     <g style="fill: #262626" transform="translate(459.208906 117.949062) scale(0.11 -0.11)">
      <use xlink:href="#ArialMT-64"/>
      <use xlink:href="#ArialMT-65" x="55.615234"/>
      <use xlink:href="#ArialMT-6e" x="111.230469"/>
      <use xlink:href="#ArialMT-73" x="166.845703"/>
      <use xlink:href="#ArialMT-65" x="216.845703"/>
      <use xlink:href="#ArialMT-5f" x="272.460938"/>
      <use xlink:href="#ArialMT-63" x="328.076172"/>
      <use xlink:href="#ArialMT-68" x="378.076172"/>
      <use xlink:href="#ArialMT-75" x="433.691406"/>
      <use xlink:href="#ArialMT-6e" x="489.306641"/>
      <use xlink:href="#ArialMT-6b" x="544.921875"/>
      <use xlink:href="#ArialMT-5f" x="594.921875"/>
      <use xlink:href="#ArialMT-72" x="650.537109"/>
      <use xlink:href="#ArialMT-61" x="683.837891"/>
      <use xlink:href="#ArialMT-6e" x="739.453125"/>
      <use xlink:href="#ArialMT-64" x="795.068359"/>
     </g>
    </g>
   </g>
  </g>
  <g id="text_19">
   <!-- Loading batches of size 128 from a 142k  5k array across 4 epochs -->
   <g style="fill: #262626" transform="translate(100.332344 15.935625) scale(0.12 -0.12)">
    <defs>
     <path id="ArialMT-4c" d="M 469 0
L 469 4581
L 1075 4581
L 1075 541
L 3331 541
L 3331 0
L 469 0
z
" transform="scale(0.015625)"/>
     <path id="ArialMT-66" d="M 556 0
L 556 2881
L 59 2881
L 59 3319
L 556 3319
L 556 3672
Q 556 4006 616 4169
Q 697 4388 901 4523
Q 1106 4659 1475 4659
Q 1713 4659 2000 4603
L 1916 4113
Q 1741 4144 1584 4144
Q 1328 4144 1222 4034
Q 1116 3925 1116 3625
L 1116 3319
L 1763 3319
L 1763 2881
L 1116 2881
L 1116 0
L 556 0
z
" transform="scale(0.015625)"/>
     <path id="ArialMT-38" d="M 1131 2484
Q 781 2613 612 2850
Q 444 3088 444 3419
Q 444 3919 803 4259
Q 1163 4600 1759 4600
Q 2359 4600 2725 4251
Q 3091 3903 3091 3403
Q 3091 3084 2923 2848
Q 2756 2613 2416 2484
Q 2838 2347 3058 2040
Q 3278 1734 3278 1309
Q 3278 722 2862 322
Q 2447 -78 1769 -78
Q 1091 -78 675 323
Q 259 725 259 1325
Q 259 1772 486 2073
Q 713 2375 1131 2484
z
M 1019 3438
Q 1019 3113 1228 2906
Q 1438 2700 1772 2700
Q 2097 2700 2305 2904
Q 2513 3109 2513 3406
Q 2513 3716 2298 3927
Q 2084 4138 1766 4138
Q 1444 4138 1231 3931
Q 1019 3725 1019 3438
z
M 838 1322
Q 838 1081 952 856
Q 1066 631 1291 507
Q 1516 384 1775 384
Q 2178 384 2440 643
Q 2703 903 2703 1303
Q 2703 1709 2433 1975
Q 2163 2241 1756 2241
Q 1359 2241 1098 1978
Q 838 1716 838 1322
z
" transform="scale(0.015625)"/>
     <path id="ArialMT-d7" d="M 503 1278
L 1488 2263
L 506 3244
L 888 3625
L 1869 2644
L 2847 3622
L 3222 3244
L 2247 2266
L 3228 1284
L 2847 903
L 1866 1884
L 881 900
L 503 1278
z
" transform="scale(0.015625)"/>
    </defs>
    <use xlink:href="#ArialMT-4c"/>
    <use xlink:href="#ArialMT-6f" x="55.615234"/>
    <use xlink:href="#ArialMT-61" x="111.230469"/>
    <use xlink:href="#ArialMT-64" x="166.845703"/>
    <use xlink:href="#ArialMT-69" x="222.460938"/>
    <use xlink:href="#ArialMT-6e" x="244.677734"/>
    <use xlink:href="#ArialMT-67" x="300.292969"/>
    <use xlink:href="#ArialMT-20" x="355.908203"/>
    <use xlink:href="#ArialMT-62" x="383.691406"/>
    <use xlink:href="#ArialMT-61" x="439.306641"/>
    <use xlink:href="#ArialMT-74" x="494.921875"/>
    <use xlink:href="#ArialMT-63" x="522.705078"/>
    <use xlink:href="#ArialMT-68" x="572.705078"/>
    <use xlink:href="#ArialMT-65" x="628.320312"/>
    <use xlink:href="#ArialMT-73" x="683.935547"/>
    <use xlink:href="#ArialMT-20" x="733.935547"/>
    <use xlink:href="#ArialMT-6f" x="761.71875"/>
    <use xlink:href="#ArialMT-66" x="817.333984"/>
    <use xlink:href="#ArialMT-20" x="845.117188"/>
    <use xlink:href="#ArialMT-73" x="872.900391"/>
    <use xlink:href="#ArialMT-69" x="922.900391"/>
    <use xlink:href="#ArialMT-7a" x="945.117188"/>
    <use xlink:href="#ArialMT-65" x="995.117188"/>
    <use xlink:href="#ArialMT-20" x="1050.732422"/>
    <use xlink:href="#ArialMT-31" x="1078.515625"/>
    <use xlink:href="#ArialMT-32" x="1134.130859"/>
    <use xlink:href="#ArialMT-38" x="1189.746094"/>
    <use xlink:href="#ArialMT-20" x="1245.361328"/>
    <use xlink:href="#ArialMT-66" x="1273.144531"/>
    <use xlink:href="#ArialMT-72" x="1300.927734"/>
    <use xlink:href="#ArialMT-6f" x="1334.228516"/>
    <use xlink:href="#ArialMT-6d" x="1389.84375"/>
    <use xlink:href="#ArialMT-20" x="1473.144531"/>
    <use xlink:href="#ArialMT-61" x="1500.927734"/>
    <use xlink:href="#ArialMT-20" x="1556.542969"/>
    <use xlink:href="#ArialMT-31" x="1584.326172"/>
    <use xlink:href="#ArialMT-34" x="1639.941406"/>
    <use xlink:href="#ArialMT-32" x="1695.556641"/>
    <use xlink:href="#ArialMT-6b" x="1751.171875"/>
    <use xlink:href="#ArialMT-20" x="1801.171875"/>
    <use xlink:href="#ArialMT-d7" x="1828.955078"/>
    <use xlink:href="#ArialMT-20" x="1887.353516"/>
    <use xlink:href="#ArialMT-35" x="1915.136719"/>
    <use xlink:href="#ArialMT-6b" x="1970.751953"/>
    <use xlink:href="#ArialMT-20" x="2020.751953"/>
    <use xlink:href="#ArialMT-61" x="2048.535156"/>
    <use xlink:href="#ArialMT-72" x="2104.150391"/>
    <use xlink:href="#ArialMT-72" x="2137.451172"/>
    <use xlink:href="#ArialMT-61" x="2170.751953"/>
    <use xlink:href="#ArialMT-79" x="2226.367188"/>
    <use xlink:href="#ArialMT-20" x="2276.367188"/>
    <use xlink:href="#ArialMT-61" x="2304.150391"/>
    <use xlink:href="#ArialMT-63" x="2359.765625"/>
    <use xlink:href="#ArialMT-72" x="2409.765625"/>
    <use xlink:href="#ArialMT-6f" x="2443.066406"/>
    <use xlink:href="#ArialMT-73" x="2498.681641"/>
    <use xlink:href="#ArialMT-73" x="2548.681641"/>
    <use xlink:href="#ArialMT-20" x="2598.681641"/>
    <use xlink:href="#ArialMT-34" x="2626.464844"/>
    <use xlink:href="#ArialMT-20" x="2682.080078"/>
    <use xlink:href="#ArialMT-65" x="2709.863281"/>
    <use xlink:href="#ArialMT-70" x="2765.478516"/>
    <use xlink:href="#ArialMT-6f" x="2821.09375"/>
    <use xlink:href="#ArialMT-63" x="2876.708984"/>
    <use xlink:href="#ArialMT-68" x="2926.708984"/>
    <use xlink:href="#ArialMT-73" x="2982.324219"/>
   </g>
  </g>
 </g>
 <defs>
  <clipPath id="pa73a714d9b">
   <rect x="115.718906" y="22.37625" width="302.79" height="273.041438"/>
  </clipPath>
 </defs>
</svg>
